<?xml version="1.0" encoding="utf-8"?>
<!-- Generator: Adobe Illustrator 24.0.2, SVG Export Plug-In . SVG Version: 6.00 Build 0)  -->
<svg version="1.1" id="Layer_1" xmlns="http://www.w3.org/2000/svg" xmlns:xlink="http://www.w3.org/1999/xlink" x="0px" y="0px"
	 viewBox="0 0 750 392" style="enable-background:new 0 0 750 392;" xml:space="preserve">
<style type="text/css">
	.st0{fill:#84AFC1;}
	.st1{fill:#F7F5F9;}
	.st2{fill:#C73E5D;}
	.st3{opacity:0.3;fill:#84AFC1;enable-background:new    ;}
	.st4{fill:#004C55;}
	.st5{fill:#21394C;}
	.st6{fill:#FFFFFF;}
	.st7{fill:none;stroke:#EDBAC3;stroke-miterlimit:10;}
	.st8{fill:#E7B9AE;}
	.st9{fill:#2B4660;}
	.st10{fill:none;stroke:#395B77;stroke-miterlimit:10;}
	.st11{fill:#DB939B;}
	.st12{fill:none;stroke:#CC7E88;stroke-width:0.5;stroke-miterlimit:10;}
	.st13{fill:#CC7E88;}
	.st14{fill:none;stroke:#233F4E;stroke-miterlimit:10;}
	.st15{fill:url(#SVGID_1_);}
	.st16{fill:url(#SVGID_2_);}
	.st17{fill:#233F4E;}
	.st18{fill:#AD3B59;}
	.st19{fill:#1C343F;}
	.st20{opacity:0.8;fill:url(#SVGID_3_);enable-background:new    ;}
	.st21{fill:#ECDCD1;}
	.st22{fill:none;stroke:#BFA797;stroke-miterlimit:10;}
	.st23{opacity:0.4;fill:#233C51;enable-background:new    ;}
	.st24{fill:none;stroke:#CC7E88;stroke-miterlimit:10;}
	.st25{fill:url(#SVGID_4_);}
	.st26{fill:url(#SVGID_5_);}
	.st27{fill:#18323D;}
	.st28{fill:url(#SVGID_6_);}
	.st29{fill:#1B323D;}
	.st30{fill:#DB912B;}
	.st31{fill:none;stroke:#1D3549;stroke-miterlimit:10;}
	.st32{fill:#1C3C47;}
	.st33{fill:url(#SVGID_7_);}
	.st34{font-family:'ArialMT';}
	.st35{font-size:9.5002px;}
</style>
<g id="BACKGROUND">
</g>
<g id="OBJECTS">
	<g>
		<rect x="1.6" y="0" class="st0" width="70.6" height="392"/>
		<g>
			
				<ellipse transform="matrix(0.9868 -0.1619 0.1619 0.9868 -27.6505 78.7545)" class="st0" cx="469.4" cy="209" rx="112.2" ry="76.6"/>
			<polygon class="st0" points="499.7,392.5 499.4,392.7 495.3,392.7 495.3,392.5 			"/>
			<path class="st0" d="M289.3,369.4l0.3-0.1c0,0-0.1,0-0.1,0L289.3,369.4z"/>
			<path class="st0" d="M109.5,392.6c0,0.1,0,0.1,0,0.1H14v-0.1L109.5,392.6z"/>
			<polygon class="st0" points="451.1,297.6 451.1,297.7 451.1,297.6 			"/>
			<path class="st0" d="M570.7,226.4c0,0.1-0.1,0.3-0.1,0.4c-2.1,6.8-7.2,13.1-12.2,19.4c-0.7,0.4-1.3,0.9-1.9,1.3
				c-1.4,1.4-2.7,2.9-4.1,4.3c-1,2.2-3.2,4-6.1,5.5c-2.1,2.4-4.9,4.6-9.7,5.6c-4.6,4-11,7.1-17.8,9.9c-0.1,0-0.2,0.1-0.2,0.1
				l-0.1,0.1c-5.9,3.5-13.3,5.8-20.4,8.4c-2.7,0.9-5.4,1.9-8.4,2.4c-1,0.2-2.1,0.3-3.2,0.4c-0.1,0-0.1,0-0.2,0
				c-6,2.3-13.1,2.8-19.8,3.8c-0.2,0-0.4,0.1-0.6,0.1c-0.8,0.1-1.6,0.3-2.5,0.4c-5.1,0.9-9.6,3-15.3,3.2l0.9,1.7
				c-0.3-0.3-0.7-0.6-1.1-0.9c-0.1,0-0.2,0-0.2,0c0,0-0.1,0-0.1,0c0,0,0,0.1,0,0.1h0c-2.7,0.7-5.1,1.6-7.3,2.7
				c0.6-0.9,1.1-1.8,1.7-2.8c-4.5,0.7-7.1,3-9.7,5.1h0l-8.3,0h0c-0.7,0.5-1.5,1-2.3,1.5h0c-0.1,0.1-0.2,0.1-0.4,0.2c0,0,0,0,0,0v0
				c0,0.1,0,0.1,0,0.2l-0.2-0.2c0,0,0,0,0-0.1c0,0-0.1,0-0.1,0h0c-0.6-0.2-1.3-0.4-2-0.5c-1.7-0.4-3.4-0.8-5.2-1.1h-29.3
				c-2.7,0.7-5.6,1.3-7.8,2.6c-0.7,0.1-1.4,0.3-2,0.4c-5,1-9.9,2.1-14.8,3.3c-4.9,1.2-9.8,2.5-14.6,3.8c-9.7,2.7-19.1,5.6-28.3,8.8
				c-4.9,1.7-9.8,3.4-14.6,5.3c-7.1,2.7-14.2,5.5-21.1,8.4c-1.9,0.8-3.8,1.6-5.8,2.3c-2.6,1.3-5.2,2.5-7.8,3.8
				c0,0.5,0.1,0.9,0.1,1.4h-3.1c-0.3,0.1-0.6,0.3-0.9,0.4c-4.8,2.7-9.7,5.3-14.5,8c-2.6,1.5-5.3,2.9-8,4.4c-0.7,0.4-1.4,0.8-2.1,1.1
				c-1.9,1.2-3.8,2.5-5.8,3.6c-0.4,0.2-0.7,0.4-1.1,0.6l-0.1,0.9H231c-6.5,3.7-13.5,7-21.2,9.9c-0.8,1.7-1.6,3.3-2.2,4.9h-13.1
				c-13.5,4.4-28,7.2-43.6,8.2l0.1,1.2l-11.3,1.2l0.1-0.8c-6.1,0.8-12.4,1.3-18.4,2.5h0c-1.8,0.4-3.6,0.8-5.4,1.4
				c-2.1,0.8-4.1,1.5-6.2,2.3c-2.8,1-5.5,2.1-8.3,3.1c-5,1.5-10.2,2.2-15.9,1.4c-21.8,0-43.5-0.1-65.3,0.1c-4.6,0-5.8-0.6-5.7-3
				c0.4-4.9,0.4-9.8,0.5-14.8v-36.8H14V189.3h1v-88.8c0-10.3,0-20.6,0-30.9C15,46.8,15,24,14.9,1.2c1.4-1.5,4-1.2,6.2-1.1
				c86.2,0,172.4,0.1,258.5,0.2c6.1,0,12.3-0.3,18.2,0.8c1.7,2.3,6.7,3.2,7.9,5.7c8.2,4.7,16.4,9.4,24.6,14.2
				c6.6,2.5,12,5.3,15.9,8.5h72v23c3.8,1,5.7,3,6.5,5.8c-0.9,2.9-1.6,6.1-6.5,7.5v32.9c0.4-0.1,0.8-0.2,1.2-0.2
				c2.9-0.1,2.1,6.4,0.7,12.2c7.9-15.1,21.5-26.1,29.9-17.2c2,2.1,2.4,4.6,1.8,7.2c6.4-1.8,12.9-2,19.2,0.2
				c6.5,2.3,7.7,12.2,1.9,19.8c1.4,0.4,2.5,1.2,2.9,2.3c0.6,1.5-1.8,2.5-4.8,3.2c4.6,0.7,7.7,2.8,8.1,5.4c0,0.1,0,0.2,0,0.3
				c0,1.2-1.3,1.8-3.2,2.1c2.7,0.6,5.5,1.2,8.2,1.8c1.3,0.4,2.5,0.9,3.8,1.3c11.7,1.7,21.3,5.4,30.4,9.6
				c27.9,10.8,45.4,25.5,54.3,43.5C576.8,202.3,576.9,214.4,570.7,226.4z"/>
			<path class="st1" d="M418.3,42.2v123c0,0,0,0,0,0v10.1c0,1.3-0.2,2.6-0.6,3.8c-0.1,0.3-0.2,0.6-0.3,0.8c-0.2,0.6-0.5,1.3-0.9,1.8
				c-0.5,0.9-1.2,1.8-1.9,2.5c-2.3,2.3-5.5,3.8-9.1,3.8h-41.6c1.8,14.2,12.5,20.4,12.5,20.4s-25-2.2-28.4-20.4H137
				c-7.1,0-12.8-5.7-12.8-12.8V42.2c0-1.1,0.1-2.1,0.4-3.1c0.3-1.2,0.8-2.3,1.4-3.4c2.2-3.8,6.3-6.3,11-6.3h268.5
				C412.5,29.4,418.3,35.1,418.3,42.2z"/>
			<rect x="124.2" y="29.4" class="st2" width="294" height="20.3"/>
			<path class="st1" d="M399.7,39.6c0,2-1.6,3.7-3.7,3.7c-2,0-3.7-1.6-3.7-3.7c0-2,1.6-3.7,3.7-3.7
				C398.1,35.9,399.7,37.5,399.7,39.6z"/>
			<path class="st1" d="M411.1,39.6c0,2-1.6,3.7-3.7,3.7c-2,0-3.7-1.6-3.7-3.7c0-2,1.6-3.7,3.7-3.7
				C409.4,35.9,411.1,37.5,411.1,39.6z"/>
			<rect x="285.6" y="96" class="st3" width="67.9" height="64.1"/>
			<rect x="358.2" y="96" class="st0" width="49.6" height="3.1"/>
			<rect x="358.2" y="102.8" class="st0" width="49.6" height="3.1"/>
			<rect x="358.2" y="109.5" class="st0" width="49.6" height="3.1"/>
			<rect x="358.2" y="116.3" class="st0" width="49.6" height="3.1"/>
			<rect x="358.2" y="123" class="st0" width="49.6" height="3.1"/>
			<rect x="358.2" y="129.8" class="st0" width="49.6" height="3.1"/>
			<rect x="358.2" y="136.5" class="st0" width="49.6" height="3.1"/>
			<rect x="358.2" y="143.3" class="st0" width="49.6" height="3.1"/>
			<rect x="358.2" y="150.1" class="st0" width="49.6" height="3.1"/>
			<rect x="358.2" y="156.8" class="st0" width="24.8" height="3.1"/>
			<rect x="214.6" y="63.9" class="st3" width="193.1" height="27.8"/>
			<rect x="135.7" y="96" class="st3" width="145.6" height="64.1"/>
			<path class="st2" d="M166.8,157.1c-9.6,24.3-30.4,32-18.8,50.7s66,30.5,91.4,9.6s-5.4-32.6-5.2-47.5
				c0.2-14.9-36.3-21.9-36.3-21.9L166.8,157.1z"/>
			<path class="st4" d="M172.7,162.1l0-0.8C182.5,164.7,172.7,162.1,172.7,162.1z"/>
			<path class="st5" d="M267.9,337.6h-3.1c-0.3,0.1-0.6,0.3-0.9,0.4c-4.8,2.7-9.7,5.3-14.5,8c-2.6,1.5-5.3,2.9-8,4.4
				c-0.7,0.4-1.4,0.8-2.1,1.1c-1.9,1.2-3.8,2.5-5.8,3.6c-0.4,0.2-0.7,0.4-1.1,0.6l0-0.6l0.7-10.4l0.5-7.2l1.2-17.5l0.5-7.7l0.2-2.8
				l0.2-2.4l0.2-3.5l0.4-6.2l0.8-10.9l0.6-8.5l0.4-6.4l0.2-2.8l0.7-9.9l0.1-1.7l0.2-2.4l0.1-2l0-0.2v0l0.7-10.2l0.4-5.7l0.2-3.2
				l0.1-1.1c0.1,0,0.2,0.1,0.3,0.1c0.7,0.3,1.3,0.7,2,1.2c0.4,0.3,0.9,0.7,1.3,1.1l0,0c1.2,1.2,2.3,2.7,3.3,4.6
				c0.3,0.6,0.7,1.2,1,1.9c0.4,0.9,0.9,1.8,1.3,2.8c0.2,0.4,0.4,0.8,0.5,1.2c0,0.1,0.1,0.1,0.1,0.2c0.1,0.3,0.2,0.5,0.3,0.8
				c0.1,0.3,0.2,0.6,0.4,0.9c0.7,1.7,1.3,3.6,1.9,5.6c0.3,1,0.6,1.9,0.9,3c2.9,9.7,5.3,21.6,7.4,34.4c0.1,0.6,0.2,1.2,0.3,1.8v0
				c0,0.2,0.1,0.4,0.1,0.6c0,0.1,0,0.2,0,0.3c0.2,1.5,0.5,3,0.7,4.5c0.2,1.3,0.4,2.6,0.6,3.9c1.4,10,2.7,20.3,3.7,30.2
				c0.1,0.7,0.1,1.4,0.2,2.1c0.1,0.8,0.2,1.6,0.3,2.4C267.8,336.7,267.9,337.2,267.9,337.6z"/>
			<path class="st5" d="M139.6,382.1l0.1-0.8c-6.1,0.8-12.4,1.3-18.4,2.5h0c-1.8,0.4-3.6,0.8-5.4,1.4c-2.1,0.8-4.1,1.5-6.2,2.3
				c0.3-4.5,0.7-11.6,1.4-20.4c0.1-0.7,0.1-1.3,0.2-2v0c0.3-3.5,0.6-7.3,0.9-11.3c0.1-0.6,0.1-1.2,0.2-1.8c0.3-3.3,0.6-6.6,0.9-10.1
				c0.1-1.4,0.3-2.9,0.4-4.3c0.3-3.1,0.7-6.3,1-9.5c0.1-0.8,0.2-1.7,0.3-2.5c1.1-9.3,2.3-18.8,3.7-28c0.1-0.4,0.1-0.8,0.2-1.2
				c0.1-0.5,0.2-1.1,0.3-1.6c0.5-3.5,1.1-6.9,1.7-10.3v0c0.2-1,0.3-1.9,0.5-2.9c1.3-6.9,2.6-13.4,4.1-19.3c0.3-1.1,0.5-2.1,0.8-3.1
				c0.1-0.4,0.2-0.9,0.4-1.3c0.1-0.5,0.3-0.9,0.4-1.4c3.8-13,8.2-22.1,13.5-24l0.3,3.6l0.5,7.6l0.6,7.8l0.3,3.9l0.1,1.3c0,0,0,0,0,0
				l0.3,4.1l0.2,3l0,0.5l0.3,3.5l1.5,20.9v0l0,0.6l0.1,1.7l0.5,6.6l0.1,1.2c0,0,0,0,0,0l1.5,21.6l1.2,17.3l0.7,9.7l0.2,3.3v0
				l0.4,6.1l1,14.8l0.1,2l0.2,3.4l0.2,2.8l0.1,1.2L139.6,382.1z"/>
			<path class="st6" d="M241.5,350.5c-0.7,0.4-1.4,0.8-2.1,1.1c-1.9,1.2-3.8,2.5-5.8,3.6c-0.4,0.2-0.7,0.4-1.1,0.6l-0.1,0.9H231
				c-6.5,3.7-13.5,7-21.2,9.9c-0.8,1.7-1.6,3.3-2.2,4.9h-71.9l0.1-0.3c0,0,0,0,0,0l0-0.1l0.5-2.3l0.2-0.8v0l0.1-0.5c0,0,0,0,0,0
				l1.4-6.4l0.4-1.9v0l0.5-2.5l4.1-19.1l3.7-17.3l2.1-9.5v0l1.6-7.5v0l1.1-5l0.2-0.7l1-4.5v0l1.3-5.9c0,0,0,0,0,0l2.9-13.4l0.1-0.3
				l0.2-1.1l0.4-1.9l0.4-1.9c0,0,0,0,0,0c0,0,0,0,0,0l0.1-0.6v0l0.4-1.9l0.3-1.5v0l0.1-0.4l0.4-1.9v-0.1l0-0.2l0.5-2.4v0l0.6-2.8
				c0,0,0,0,0,0l0.9-4.1l0.1-0.5v0l0.1-0.3l0.5-2.5l0.3-1.3v0l2.5-11.7l0.7-3.3l2-9.3l3.1-0.7l2.2-0.5c0.6-0.1,1.3-0.3,1.9-0.4
				c0.3-0.1,0.7-0.1,1-0.2c0.1,0,0.3-0.1,0.5-0.1c0.3-0.1,0.6-0.1,0.9-0.2c0.2,0,0.4-0.1,0.5-0.1c0.2,0,0.3-0.1,0.5-0.1
				c0.5-0.1,1-0.2,1.4-0.2c0.7-0.1,1.4-0.2,2.2-0.3c0.2,0,0.3-0.1,0.5-0.1c0.5-0.1,1.1-0.1,1.6-0.2c0.2,0,0.5-0.1,0.7-0.1
				c1.3-0.1,2.6-0.2,3.9-0.2c0.2,0,0.3,0,0.5,0c2.3-0.1,4.6,0,6.9,0.1h0c0.6,0,1.2,0.1,1.8,0.1c0.2,0,0.4,0,0.6,0.1h0.1
				c0.7,0.1,1.4,0.1,2.1,0.2c0.4,0.1,0.8,0.1,1.3,0.2c0.2,0,0.4,0.1,0.6,0.1c0.4,0.1,0.9,0.1,1.3,0.2c0.1,0,0.1,0,0.2,0
				c0.4,0.1,0.9,0.1,1.3,0.2c0.5,0.1,0.9,0.2,1.4,0.3c0.2,0,0.3,0.1,0.5,0.1c0.2,0,0.5,0.1,0.7,0.1c0.7,0.1,1.3,0.3,2,0.5l3.4,0.8
				l1.2,0.3v0l0.8,3.7l1.5,7.2c0,0,0,0,0,0v0.1l0.8,3.4l2.9,13.5l0.3,1.3l0.3,1.3c0,0,0,0,0,0l0.1,0.3l0.7,3.3l2.1,9.6l0.1,0.4v0
				l0.2,1l0.1,0.2c0,0,0,0,0,0l4.4,20.5l0.9,4.3l0.8,3.7l0,0l2.6,12.1l0.5,2.3l1.7,8.1l3.8,17.5l0.4,2l0.6,3l1.4,6.6L241.5,350.5z"
				/>
			<path class="st7" d="M187.9,268.1c13,0.6,25.6-5.5,25.6-5.5"/>
			<path class="st8" d="M220.3,251.7c-6.8,4.7-16.7,7.7-27.7,7.7c-12.6,0-23.8-3.9-30.6-9.9l5.6-25.6l5.3-1.3
				c12.1-2.9,24.8-2.9,36.9,0.1l4.6,1.1L220.3,251.7z"/>
			<path class="st9" d="M171.3,356.8h-39.6l6.3-86.3l2.6-37.9l14.8-4.8l12.3-4c0,0,1.4,12,8.8,16.2c0,0,0.3,3.3,0.7,8.9v0
				C178.8,272.8,182.2,337.8,171.3,356.8z"/>
			<path class="st9" d="M249.5,346.1c-2.6,1.5-5.3,2.9-8,4.4c-0.7,0.4-1.4,0.8-2.1,1.1c-1.9,1.2-3.8,2.5-5.8,3.6
				c-0.4,0.2-0.7,0.4-1.1,0.6l-0.1,0.9h-21.8c-1.4-2.4-2.5-5.6-3.5-9.3c-0.2-0.7-0.4-1.4-0.5-2.2c-0.4-1.8-0.8-3.6-1.1-5.6
				c-0.1-0.7-0.2-1.3-0.3-2c-0.4-2.4-0.7-4.9-0.9-7.6v0c-0.1-1.1-0.2-2.3-0.3-3.5c-0.1-0.6-0.1-1.2-0.1-1.8
				c-0.1-0.8-0.1-1.5-0.2-2.3c-0.5-8-0.7-16.5-0.7-24.9c0-2.3,0-4.6,0.1-6.9c0-0.7,0-1.4,0-2.1c0,0,0,0,0,0v-0.3c0-0.1,0-0.3,0-0.4
				v0c0-1.4,0.1-2.8,0.1-4.1c0.1-5.3,0.3-10.3,0.5-15c0-0.9,0.1-1.8,0.1-2.7c0-0.1,0-0.2,0-0.3c0.1-2.7,0.3-5.2,0.4-7.6
				c0.3-5.5,0.6-10,0.9-13.2c0.2-3.2,0.4-5,0.4-5c4.2-2.4,6.4-7.3,7.6-11c0.1-0.4,0.3-0.9,0.4-1.3c0.6-2.3,0.8-3.9,0.8-3.9l2.8,0.9
				l3.8,1.2l0.5,0.2h0l10.2,3.3l0,0l2.8,0.9l2,0.6l4.9,1.6l0,0.1l0.1,1.1l0.1,2.1l0.5,7.9v0l0.1,1.2l0.2,3.2v0l0,0.4l0.2,2.4
				l0.1,1.3l0,0.6l0,0.2l0.5,6.8l0.6,8.4l0.1,2.2l1.7,23.6l0.2,2.5l0.1,1l0.8,10.6l0.4,5.6l0.3,4.6c0,0,0,0,0,0l0.2,2.2c0,0,0,0,0,0
				l0.1,1.9l0.1,0.8l0.8,11.5l0.2,2.8L249.5,346.1z"/>
			<path class="st10" d="M158.9,230.2c0,0-4.2,22.8-7.1,42.5c-2.9,19.6,16.9,29.4,16.9,29.4s-16.6,11.4,1.6,31.4"/>
			<path class="st10" d="M224.8,230.2c0,0,4.2,22.8,7.1,42.5c2.9,19.6-16.9,29.4-16.9,29.4s16.6,11.4-1.6,31.4"/>
			<g>
				<polygon class="st8" points="204.3,230.2 174.8,226.2 181.2,207.5 183.9,199.5 202.9,202.2 204,223.1 				"/>
				<path class="st11" d="M204,223.1c-6.5-1.3-16.2-5.1-22.8-15.6l2.7-7.9l19,2.6L204,223.1z"/>
				<path class="st2" d="M229.1,186.2c-4.6,7.9-11.9,13.9-20,17c-5.6,2.1-11.6,2.9-17.4,2c-3.4-0.6-6.6-1.7-9.5-3.3
					c-0.3-0.1-0.6-0.3-0.8-0.4c-0.7-0.4-1.4-0.9-2-1.3c-8.7-6.1-14.3-16.6-14.7-28.4c-0.1-2.8,0.1-5.7,0.6-8.7
					c0.4-2.1,0.9-4.1,1.5-6c3.7-11.2,12-19.8,21.8-23.6c5.1-2,10.6-2.7,16.2-1.8c14.5,2.3,23.9,10.8,27.7,22.1
					c0.1,0.3,0.2,0.6,0.3,0.9c0.3,0.9,0.5,1.8,0.7,2.8l0,0c0,0.1,0.1,0.3,0.1,0.4c0.1,0.2,0.1,0.4,0.1,0.6c0.1,0.5,0.2,1,0.3,1.5
					c0,0,0,0,0,0c0.1,0.8,0.2,1.6,0.3,2.5c0.3,3.7,0.1,7.5-0.6,11.5c-0.3,1.5-0.6,2.9-1,4.3C231.8,181,230.6,183.7,229.1,186.2z"/>
				<g>
					<path class="st8" d="M171.9,174.6c-5.1-6.6-10.9-6.5-12.7,1.9c-1.9,8.4,6.6,14.6,13,11.6C178.5,185.1,171.9,174.6,171.9,174.6z
						"/>
					<path class="st11" d="M166.5,175.1c-3.1-0.4-4,8.9,2.7,8.7l-1.6-3.1l1.1-2.7L166.5,175.1z"/>
					<path class="st12" d="M170.3,185c-4.2-3.9-1.6-7-1.6-7s-4.3-7.4-5.3-1.4"/>
				</g>
				<g>
					<path class="st8" d="M222.2,182.6c5.6-6.1,11.4-5.5,12.5,3.1c1.1,8.5-8,13.9-14,10.3C214.6,192.4,222.2,182.6,222.2,182.6z"/>
					<path class="st11" d="M227.3,183.7c3.1-0.1,3.5,9.1-3.2,8.5l1.8-3l-0.9-2.8L227.3,183.7z"/>
					<path class="st12" d="M222.8,193.1c4.6-3.5,2.2-6.8,2.2-6.8s4.9-6.9,5.4-0.9"/>
				</g>
				<path class="st8" d="M213.9,202.6L213.9,202.6c-0.3,0.4-0.6,0.8-0.9,1.2l0,0c-4.1,5.2-9.9,8.5-18.1,8
					c-10.9-0.7-17.1-5.9-20.4-13.1c-0.6-1.2-1-2.5-1.4-3.9c-5.4-17.7,2.8-42.8,2.8-42.8l47,7.5C223,159.5,224.6,187.6,213.9,202.6z"
					/>
				<g>
					<path class="st13" d="M182.3,186.7c0.1,0.7,0.8,1.1,1.4,1c0.7-0.1,1.1-0.8,1-1.4c-0.1-0.7-0.8-1.1-1.4-1
						C182.6,185.4,182.1,186,182.3,186.7z"/>
					<path class="st13" d="M181.4,189.3c0.1,0.3,0.4,0.6,0.7,0.5s0.6-0.4,0.5-0.7s-0.4-0.6-0.7-0.5
						C181.6,188.7,181.4,189,181.4,189.3z"/>
					<path class="st13" d="M179.8,187c0.1,0.4,0.5,0.8,1,0.7c0.4-0.1,0.8-0.5,0.7-1c-0.1-0.4-0.5-0.8-1-0.7
						C180,186.1,179.7,186.5,179.8,187z"/>
				</g>
				<g>
					<path class="st13" d="M208.5,190.9c-0.6-0.4-1.3-0.3-1.7,0.2c-0.4,0.6-0.3,1.3,0.2,1.7c0.6,0.4,1.3,0.3,1.7-0.2
						C209.1,192.1,209,191.3,208.5,190.9z"/>
					<path class="st13" d="M207.3,188.4c-0.3-0.2-0.7-0.1-0.9,0.1c-0.2,0.3-0.1,0.7,0.1,0.9c0.3,0.2,0.7,0.1,0.9-0.1
						C207.6,189,207.5,188.6,207.3,188.4z"/>
					<path class="st13" d="M210.1,189c-0.4-0.3-0.9-0.2-1.2,0.2c-0.3,0.4-0.2,0.9,0.2,1.2c0.4,0.3,0.9,0.2,1.2-0.2
						C210.5,189.8,210.5,189.3,210.1,189z"/>
				</g>
				<path class="st14" d="M188.4,195.5c0,0,5,3.7,13.5,0"/>
				
					<linearGradient id="SVGID_1_" gradientUnits="userSpaceOnUse" x1="191.423" y1="193.4509" x2="197.8912" y2="193.4509" gradientTransform="matrix(1 0 0 -1 0 394.001)">
					<stop  offset="0" style="stop-color:#DB939B"/>
					<stop  offset="1" style="stop-color:#D5949B;stop-opacity:0"/>
				</linearGradient>
				<path class="st15" d="M197.9,200.6c0,0.8-1.4,1.4-3.2,1.4c-1.8,0-3.2-0.6-3.2-1.4s1.4-1.4,3.2-1.4S197.9,199.8,197.9,200.6z"/>
				<path class="st2" d="M207.9,172.5c6.8,3.5,11.5,3.3,5.9-0.2C208.3,168.8,204.4,170.7,207.9,172.5z"/>
				<path class="st2" d="M185.6,169.1c-7.6,1.3-12.2-0.3-5.7-2S189.6,168.4,185.6,169.1z"/>
				
					<linearGradient id="SVGID_2_" gradientUnits="userSpaceOnUse" x1="954.8303" y1="184.1279" x2="947.7708" y2="205.0101" gradientTransform="matrix(0.8893 0.4574 0.4574 -0.8893 -739.4612 -76.5975)">
					<stop  offset="0" style="stop-color:#DB939B"/>
					<stop  offset="1" style="stop-color:#D5949B;stop-opacity:0"/>
				</linearGradient>
				<path class="st16" d="M199.2,186.3l-2.9-6.4l-4.5,5.4c-1.1,1.4,1.2,1.8,1.2,1.8s-0.2,1.4,2.1,1.9c2.4,0.2,2.5-1.2,2.5-1.2
					S200,187.9,199.2,186.3z"/>
				<path class="st2" d="M171.4,179.2c-6.4-7.7,0.5-22.3,0.5-22.3l4.1-4.9l1.6-2.1c0,0,0.4,11.4-1.7,19.5
					C174.1,176.5,171.4,179.2,171.4,179.2z"/>
				<path class="st2" d="M220.8,187.1c8.3-5.6,8.2-22.4,8.2-22.4l-4.4-4.6l-3.1-2.5c0,0-1.9,10.8-2.1,19.8
					C219.4,183.6,220.8,187.1,220.8,187.1z"/>
				<path class="st2" d="M176.3,148.3c0,0-1.3,13,24.9,18.4l-2.1-6.7c0,0,5.9,13.5,30.4,12.6l-6.2-24.1l-36.7-5.9L176.3,148.3z"/>
			</g>
			<path class="st17" d="M183.2,180.7L183.2,180.7c-1.1,0-2-0.9-2-2v-2c0-1.1,0.9-2,2-2l0,0c1.1,0,2,0.9,2,2v2
				C185.3,179.8,184.4,180.7,183.2,180.7z"/>
			<path class="st17" d="M207.6,184.9L207.6,184.9c-1.1-0.3-1.7-1.4-1.4-2.5l0.5-1.9c0.3-1.1,1.4-1.7,2.5-1.4l0,0
				c1.1,0.3,1.7,1.4,1.4,2.5l-0.5,1.9C209.8,184.5,208.7,185.2,207.6,184.9z"/>
			<path class="st2" d="M150.9,379.7l0.1,1.2l-11.3,1.2l0.1-0.8l0.4-5.9l0.3-3.6l0-0.2h54C180.9,375.9,166.5,378.7,150.9,379.7z"/>
			<path class="st18" d="M150.9,379.7l0.1,1.2l-11.3,1.2l0.1-0.8l0.4-5.9l0.3-3.6l0-0.2h54C180.9,375.9,166.5,378.7,150.9,379.7z"/>
			<g>
				<path class="st1" d="M108.8,229.5l-7.7,4.3c-1-1.6-1.7-3-2-4.2s-0.4-2.4-0.3-3.4c0.1-1,0.3-1.9,0.7-2.7c0.4-0.8,0.8-1.5,1.2-2.2
					c0.4-0.7,0.7-1.3,1-1.8c0.3-0.6,0.4-1.1,0.3-1.7c-0.1-0.3-0.2-0.7-0.4-1s-0.6-0.6-1-0.8c-0.4-0.2-1-0.2-1.6-0.1
					s-1.4,0.4-2.2,0.8c-0.6,0.3-1.2,0.7-1.9,1.2c-0.7,0.5-1.4,1.1-2.1,1.8s-1.4,1.4-2,2.1c-0.6,0.8-1.2,1.5-1.6,2.2l-6-8.4
					c0.4-0.6,0.8-1.4,1.3-2.1c0.5-0.8,1.1-1.5,1.8-2.3c0.7-0.8,1.5-1.5,2.4-2.3s1.9-1.4,3.1-2.1c1.9-1.1,3.8-1.8,5.8-2.2
					c2-0.4,3.8-0.5,5.7-0.2c1.8,0.3,3.5,1,5.1,2.1s2.9,2.5,3.9,4.4c0.8,1.4,1.3,2.7,1.3,3.8c0.1,1.1,0,2.1-0.4,3.1
					c-0.3,0.9-0.8,1.8-1.3,2.6c-0.6,0.8-1.1,1.7-1.6,2.6c-0.5,0.9-0.9,1.8-1.2,2.8C108.5,227.1,108.5,228.2,108.8,229.5z
					 M113.4,234.9c0.4,0.7,0.6,1.4,0.7,2.1c0.1,0.7,0,1.4-0.2,2.1c-0.2,0.7-0.5,1.3-0.9,1.9c-0.4,0.6-1,1.1-1.6,1.4
					c-0.7,0.4-1.4,0.6-2.1,0.7c-0.7,0.1-1.4,0-2.1-0.2c-0.7-0.2-1.3-0.5-1.9-0.9c-0.6-0.4-1.1-1-1.4-1.7c-0.4-0.7-0.6-1.4-0.7-2.1
					c-0.1-0.7,0-1.4,0.2-2.1s0.5-1.3,0.9-1.9c0.4-0.6,1-1.1,1.7-1.4c0.7-0.4,1.3-0.6,2.1-0.6c0.7-0.1,1.4,0,2.1,0.2
					c0.7,0.2,1.3,0.5,1.9,1C112.5,233.7,113,234.3,113.4,234.9z"/>
			</g>
			<path class="st17" d="M311.2,175.6c-5.2,42.8,22.1,40.2,28.1,56.8s-6.9,37.8-52.1,33.5s-54.6-32.6-55-50.4s19.4-46.3,19.4-46.3
				L311.2,175.6z"/>
			<path class="st17" d="M248.8,172.5c-27.1,6.6-0.9-51,38.8-34.8c49,20,10.3,81-7.3,83.7s-11.1-8.8-11.1-8.8L248.8,172.5z"/>
			<path class="st19" d="M296,186.3c4.9,19.7,6.8,31.4,29.1,42c22.4,10.7,2.1,36.4,2.1,36.4l-52.6-27.4l-2.4-34.9L296,186.3z"/>
			<polygon class="st11" points="287.6,193.6 280.3,221.3 253.9,221.7 258,199.5 			"/>
			<path class="st13" d="M142.7,255.9c-4.6,7.9,6.2,17.6,22.1,19l7-4.4c0,0,3.7-5.5-3.3-11.1c-7.1-5.6-9-1.6-9-1.6L142.7,255.9z"/>
			<path class="st13" d="M168.6,259.4c-7.6-6.4-5-15.1-9-14.8c-4,0.3-1.1,14.1-1.1,14.1l4.8,2.9L168.6,259.4z"/>
			
				<linearGradient id="SVGID_3_" gradientUnits="userSpaceOnUse" x1="114.8281" y1="103.8538" x2="180.8426" y2="170.3935" gradientTransform="matrix(1 0 0 -1 0 394.001)">
				<stop  offset="0" style="stop-color:#F7F5F9"/>
				<stop  offset="1" style="stop-color:#EBE9ED;stop-opacity:0"/>
			</linearGradient>
			<polygon class="st20" points="138.4,240.8 173.5,173 232.2,229.9 164.8,267.5 			"/>
			<g>
				<g>
					<path class="st6" d="M134.9,240.8c-1,1-1,2.6,0,3.6l26.3,26.7c1,1,2.6,1,3.6,0s1-2.6,0-3.6l-26.3-26.8
						C137.5,239.8,135.9,239.8,134.9,240.8z"/>
				</g>
			</g>
			<path class="st21" d="M249.5,226.5c-33.3,0.5-38.7,73.7-38.7,73.7s-14.5-26.8-27.6-25.4l-17.8,10.9c0,0-9.5,33.4,42,54.7
				s48.6-35.9,48.6-35.9L249.5,226.5z"/>
			<path class="st6" d="M315.4,258.6c-0.1,2-0.3,4.1-0.5,6.3c-1,10.2-3.2,21.6-5.9,32.7c-0.2,0.9-0.4,1.7-0.6,2.5
				c-1.9,7.5-4,14.9-6,21.6c-7.1,2.7-14.2,5.5-21.1,8.4c-1.9,0.8-3.8,1.6-5.8,2.3c-2.6,1.3-5.2,2.5-7.8,3.8c0,0.5,0.1,0.9,0.1,1.4
				h-3.1c-0.3,0.1-0.6,0.3-0.9,0.4c-4.8,2.7-9.7,5.3-14.5,8c-2.6,1.5-5.3,2.9-8,4.4c-0.7,0.4-1.4,0.8-2.1,1.1
				c-1.9,1.2-3.8,2.5-5.8,3.6h-17.9l-0.7-11.6l0-0.5l-0.2-3.2l-0.1-2.3l-0.1-0.8v0l0-0.2c0,0,0,0,0,0l-0.3-4.2l-1.1-17.9l0-0.2
				l-0.1-1.5l-0.1-1.5l-0.1-2.1c0,0-0.7-0.5-1.8-1.5c-0.8-0.8-1.8-1.9-2.7-3.3c-1.2-1.8-2.4-4-3.1-6.8c-0.6-2.1-0.9-4.5-0.8-7.2v0
				c0-0.5,0.1-0.9,0.1-1.4c0-0.1,0-0.3,0-0.5c0-0.1,0-0.1,0-0.2c0-0.2,0-0.4,0.1-0.6v0c0.1-0.8,0.3-1.6,0.4-2.5v0
				c0.2-0.9,0.4-1.8,0.7-2.8c1-3.4,2.7-7.1,5.2-11.1c0.6-0.9,1.2-1.8,1.8-2.7c0.5-0.7,1-1.4,1.5-2.1c0.8-1,1.6-2.1,2.4-3.1
				c0,0,0,0,0,0c0.5-0.6,0.9-1.1,1.4-1.7v0l0,0c1.1-1.2,2.2-2.5,3.4-3.7c0.1-0.1,0.2-0.2,0.3-0.3c1.3-1.4,2.5-2.7,3.8-4
				c0.2-0.2,0.4-0.5,0.7-0.7c0.3-0.3,0.6-0.6,0.9-1c0.4-0.4,0.7-0.8,1.1-1.2c3.8-4.1,7.2-8,10.1-11.3c0.8-0.9,1.6-1.8,2.3-2.6
				c0.3-0.3,0.5-0.6,0.8-0.9c0.4-0.5,0.8-1,1.2-1.4c0.2-0.2,0.3-0.4,0.5-0.6c0.3-0.4,0.6-0.8,0.9-1.1c0.7-0.8,1.3-1.6,1.9-2.2
				c0.5-0.6,0.9-1.1,1.3-1.5c0.4-0.5,0.7-0.9,1-1.2c0.7-0.8,1-1.3,1-1.3h26.4c0,0,5.2,0,11.7,0.5c3.9,0.3,8.2,0.9,12.1,1.8
				c0.5,0.1,1,0.2,1.5,0.4c2.2,0.6,4.2,1.2,5.9,2.1c2.1,1,3.7,2.2,4.6,3.7c0.2,0.4,0.5,0.8,0.7,1.2c0,0,0,0.1,0,0.1c0,0,0,0,0,0
				c0.4,0.9,0.8,1.8,1.1,2.8C315.3,244.2,315.8,251,315.4,258.6z"/>
			<path class="st6" d="M359.9,303.9c-4.9,1.2-9.8,2.5-14.6,3.8c-9.7,2.7-19.1,5.6-28.3,8.8c0.2-1.3,1.2-2.6,4-3.5l-12.6-12.8
				l-2.5-2.5l-3-3c0,0,0,0,0,0c0,0,0,0,0,0l-0.5-0.6l-1.3-1.3l0.4-2.1v0l0-0.2l4.4-24.1l2.1-11.4l3.5-19.3l0.1-0.4
				c0,0,0.4,0.4,1.1,1.1c0.1,0.1,0.2,0.2,0.3,0.3c0.5,0.5,1.1,1.2,1.9,2c3.6,3.9,9.9,10.7,16.8,19.2c0,0,0,0,0,0
				c3.8,4.8,7.8,10,11.6,15.5c3,4.4,6,9,8.6,13.6c0.2,0.4,0.4,0.7,0.6,1.1c1,1.8,1.9,3.5,2.8,5.3c0.7,1.5,1.4,3,2.1,4.4
				C358.3,299.7,359.1,301.8,359.9,303.9z"/>
			<line class="st22" x1="331.5" y1="311" x2="321" y2="313"/>
			<path class="st22" d="M301.9,254.2c-7.6,21,1.1,40.4,1.1,40.4s-9-5.4-10.7-16.2"/>
			<path class="st6" d="M287.5,228.1c1.7-11.6-13.3-10.1-32.3-9.1c-19,1-6.7,14.8-6.7,14.8L287.5,228.1z"/>
			<path class="st9" d="M233.6,355.2c-0.4,0.2-0.7,0.4-1.1,0.6l-0.1,0.9H231c-6.5,3.7-13.5,7-21.2,9.9c1.4-3,3.1-6.3,5-9.9
				c0.3-0.5,0.6-1,0.8-1.5L233.6,355.2L233.6,355.2z"/>
			<path class="st9" d="M289.3,369.4l0.3-0.1c0,0-0.1,0-0.1,0L289.3,369.4z"/>
			<path class="st23" d="M289.3,369.4l0.3-0.1c0,0-0.1,0-0.1,0L289.3,369.4z"/>
			<path class="st22" d="M272.5,294.5c0,0-15.6,17.9-47.6,14.9c0,0,15.6,6.8,35,3.6"/>
			<path class="st21" d="M165.5,285.8c-7.1-5.9-3.1-9.5,1.6-12.4s10-12.4,16.1,1.5L165.5,285.8z"/>
			<path class="st8" d="M158.9,266h-2.3c0.9-0.4,1.6-1.4,1.6-2.5c0-1.5-1.2-2.7-2.7-2.7H151c1.5,0,2.7-1.2,2.7-2.7s-1.2-2.7-2.7-2.7
				h-9.1c-1.5,0-2.7,1.2-2.7,2.7c0,1.5,1.2,2.7,2.7,2.7h4.5c-1.5,0-2.7,1.2-2.7,2.7s1.2,2.7,2.7,2.7h4.1c-0.7,0.4-1.2,1.1-1.2,2
				c0,1.2,1,2.2,2.2,2.2h7.4c1.2,0,2.2-1,2.2-2.2S160.1,266,158.9,266z"/>
			<line class="st24" x1="145.8" y1="260.9" x2="151.8" y2="260.9"/>
			<line class="st24" x1="151.1" y1="266.1" x2="157.2" y2="266.1"/>
			<path class="st8" d="M161.1,273.8h-4.9c-0.9,0-1.6-0.7-1.6-1.6l0,0c0-0.9,0.7-1.6,1.6-1.6h4.9c0.9,0,1.6,0.7,1.6,1.6l0,0
				C162.8,273,162.1,273.8,161.1,273.8z"/>
			<line class="st22" x1="170.6" y1="282.7" x2="183.3" y2="274.9"/>
			<path class="st22" d="M250.1,233.6c10.1,4.8,34.3-3.7,34.3-3.7"/>
			<path class="st8" d="M280.8,199.5c-5.6,11.7-16.3,16.3-26.1,14.2c-8.3-1.8-15.1-9.2-13-26c0-0.1,0-0.2,0-0.3
				c1.5-4.9,6.2-9.7,7.4-16.6c0.3-2-1.3-3.6-1.5-4.5c1-2.5,2.1-5.2,3.4-8l35.2,10.7C286.2,169.2,286.4,187.8,280.8,199.5z"/>
			
				<linearGradient id="SVGID_4_" gradientUnits="userSpaceOnUse" x1="246.091" y1="191.211" x2="251.3789" y2="191.211" gradientTransform="matrix(1 0 0 -1 0 394.001)">
				<stop  offset="0" style="stop-color:#DB939B"/>
				<stop  offset="1" style="stop-color:#D5949B;stop-opacity:0"/>
			</linearGradient>
			<path class="st25" d="M251.4,202.8c0,0.6-1.2,1.1-2.6,1.1s-2.6-0.5-2.6-1.1s1.2-1.1,2.6-1.1C250.2,201.7,251.4,202.2,251.4,202.8
				z"/>
			<path class="st17" d="M278.2,167.6c-9.9,23.3,3.6,28,3.6,28l8.8-15l7.9-15l-17.4-1.3L278.2,167.6z"/>
			<g>
				<path class="st8" d="M284,185.4c4.2-6.5,9.7-6.8,11.9,0.9c2.3,7.6-5.2,13.9-11.3,11.6C278.6,195.6,284,185.4,284,185.4z"/>
				<path class="st11" d="M288.9,185.7c2.8-0.6,4.6,7.8-1.7,8.3l1.2-3l-1.3-2.4L288.9,185.7z"/>
				<path class="st12" d="M286.2,195c3.6-3.9,1-6.6,1-6.6s3.5-7.1,4.9-1.7"/>
			</g>
			<path class="st17" d="M258.5,172.8c8,4,13.5,3.7,6.9-0.3C258.8,168.5,254.4,170.7,258.5,172.8L258.5,172.8z"/>
			<path class="st17" d="M259,183.9L259,183.9c-1.2,0-2.2-1.1-2.1-2.3l0.1-2.1c0-1.2,1.1-2.2,2.3-2.1l0,0c1.2,0,2.2,1.1,2.1,2.3
				l-0.1,2.1C261.2,183,260.2,183.9,259,183.9z"/>
			<g>
				<path class="st13" d="M262.3,189.8c0.2,1.3,1.4,2.1,2.7,1.9s2.1-1.4,1.9-2.7c-0.2-1.3-1.4-2.1-2.7-1.9
					C262.9,187.4,262,188.6,262.3,189.8z"/>
				<path class="st13" d="M260.7,194.7c0.1,0.6,0.7,1.1,1.3,1s1.1-0.7,1-1.3s-0.7-1.1-1.3-1S260.6,194.1,260.7,194.7z"/>
				<path class="st13" d="M257.6,190.3c0.1,0.9,1,1.4,1.8,1.3c0.9-0.1,1.4-0.9,1.3-1.8c-0.1-0.9-1-1.4-1.8-1.3
					C258,188.7,257.4,189.5,257.6,190.3z"/>
			</g>
			<path class="st17" d="M245.1,173c6.9,0.8,19.2-10.6,19.2-10.6s-3,13.7,13.9,5.2c17-8.5-2.5-12.1-2.5-12.1L251,150l-10.6,11.7
				L245.1,173z"/>
			<path class="st8" d="M253.1,180.6l-6.6,10.6c0,0-2.5-0.2-5.1-0.8c0,0,0,0,0,0c-0.1,0-0.1,0-0.1,0c-2.8-0.6-5.5-1.7-5.1-3.4
				c0-0.1,0-0.1,0.1-0.2c1.2-3.4,10.6-9.4,12.5-14.3L253.1,180.6z"/>
			
				<linearGradient id="SVGID_5_" gradientUnits="userSpaceOnUse" x1="236.1673" y1="205.4798" x2="242.9409" y2="205.4798" gradientTransform="matrix(1 0 0 -1 0 394.001)">
				<stop  offset="0" style="stop-color:#DB939B"/>
				<stop  offset="1" style="stop-color:#D5949B;stop-opacity:0"/>
			</linearGradient>
			<path class="st26" d="M241.4,190.5C241.4,190.5,241.4,190.5,241.4,190.5C241.3,190.5,241.3,190.5,241.4,190.5
				c-2.9-0.7-5.6-1.7-5.2-3.4c0-0.1,0-0.1,0.1-0.2c3.3-0.9,5.8,0.9,6.5,2.6C243.3,190.4,242.3,190.5,241.4,190.5z"/>
			<path class="st14" d="M244.6,197.9c0,0,3.1,3.7,8.4,0"/>
			<path class="st8" d="M387.3,280.8l-0.6,6.2v0l-0.2,1.8l-0.7,7.4l-0.1,1.2l0,0.3h-1.1c-2.7,0.7-5.6,1.3-7.8,2.6
				c-0.7,0.1-1.4,0.3-2,0.4c-5,1-9.9,2.1-14.8,3.3c-4.9,1.2-9.8,2.5-14.6,3.8c0.5-3.4,1.1-6.7,1.9-10.1c0.3-1.5,0.6-2.9,1-4.4l1.5-6
				h0l2.3-0.4l20.1-3.4l1.8-0.3c0,0,0,0,0,0l0.7-0.1l0.6-0.1h0l1.3-0.2l0.6-0.1L387.3,280.8z"/>
			<path class="st27" d="M417.6,128.2c-11.9-1.2-18.2-8.4-16.5-12.2c1.7-3.7,14.1,8.5,14.1,8.5L417.6,128.2z"/>
			<path class="st27" d="M471,126.1c-1.8,0.4-4,0.7-5.8,0.9c-2.9,0.3-5.2,0.4-5.2,0.4l-0.1,0h0l-0.6-0.1l-1.6-0.3l-2-0.4
				c0.1-0.1,0.2-0.2,0.3-0.3c0.3-0.3,0.6-0.5,0.9-0.7c6.2-4.9,12.5-6.1,16.1-4.9c1.4,0.4,2.5,1.2,2.9,2.3
				C476.5,124.4,474.1,125.4,471,126.1z"/>
			<path class="st27" d="M479.1,131.8c0,1.2-1.3,1.8-3.2,2.1c0,0,0,0,0,0c-1.7,0.2-3.8,0.2-6,0.1c-1-0.1-2-0.2-3-0.3
				c-1.5-0.2-3-0.4-4.3-0.6c-2.8-0.4-4.8-0.9-4.8-0.9l-0.2-0.1c0,0,0,0,0,0l-0.8-0.4l-4.2-1.9c0,0,0.1,0,0.1-0.1
				c0,0,0.1-0.1,0.2-0.1c0.5-0.3,1-0.5,1.5-0.7c1.5-0.7,3-1.3,4.5-1.8c0.2,0,0.3-0.1,0.5-0.1c0.1,0,0.2-0.1,0.3-0.1h0
				c2.7-0.8,5.3-1.2,7.6-1.2c1.4,0,2.7,0,3.9,0.2c4.6,0.7,7.7,2.8,8.1,5.4C479.1,131.6,479.1,131.7,479.1,131.8z"/>
			<polygon class="st8" points="446.5,202.5 416.9,202.5 417.1,198.3 417.1,198.2 418.1,183.7 419.5,163 444.8,163 445.8,186.8 
				445.8,186.8 445.9,187.3 			"/>
			<path class="st11" d="M446.4,186.9c0,0-0.2,0.2-0.6,0.5c-2.9,2.4-16.4,12.9-28.7,10.9v0l1-14.5l27.7,3.1v0L446.4,186.9z"/>
			<path class="st27" d="M420.2,110.5c-0.6,2.7-1.4,5.3-1.9,7.1c-0.1,0.4-0.2,0.8-0.4,1.1c-0.2,0.6-0.3,1-0.3,1l-1.8,2.9l-0.9,1.6
				l-0.1,0.2l-0.1,0.2c-0.1-0.3-0.2-0.5-0.3-0.8v0c0-0.1,0-0.1,0-0.1c-0.2-0.7-0.4-1.3-0.6-1.9c-0.3-1-0.5-2-0.8-3
				c-0.1-0.5-0.2-1-0.3-1.4c-0.3-1.7-0.4-3.4-0.4-4.9v0c0-7.4,2.7-12.6,6-13.7c0.4-0.1,0.8-0.2,1.2-0.2
				C422.4,98.3,421.5,104.7,420.2,110.5z"/>
			<path class="st27" d="M417.6,119.7l-1.4,5.9l-0.5,2.3L413,139l-4.6,19l-0.5,2c0,0,0,0,0,0s-6.7-4.8-8.3-17.2
				c-0.2-1.6-0.3-3.2-0.3-5c0-2.1,0.1-4,0.4-5.8c1.9-11.4,9.4-17.5,16.1-13.5C416.4,118.8,417,119.2,417.6,119.7z"/>
			<path class="st27" d="M468.9,147.9c-1.4,6-4.5,12.6-11.1,17.4l-0.3,0l-49.1-7.2l-0.5-0.1l-0.4-0.1c-3.5-4.3-4.1-11.1-4-16.7
				c0-1.3,0.1-2.6,0.3-3.7h0c0.3-3.1,0.6-5.7,1.2-7.9c2-8.1,5.7-11.3,10.8-11.1c0,0,0,0,0,0c2.4,0.1,5,0.9,7.9,2.4
				c0.8,0.4,1.5,0.8,2.4,1.3l14.1-6.1l21.6,12.3l8,4.5c0,0,0,0.1,0,0.3C470,134.6,470.6,140.8,468.9,147.9z"/>
			<g>
				<g>
					<path class="st8" d="M459,163.4c6.1-4.4,11.1-2.7,10.5,5c-0.6,7.7-9.6,10.8-14.3,6.6C450.5,170.7,459,163.4,459,163.4z"/>
					<path class="st11" d="M463.3,165.2c2.9,0.4,1.6,9-4.5,7.3l2.2-2.4l-0.4-2.7L463.3,165.2z"/>
					<path class="st12" d="M457.6,172.8c4.7-2.3,3.2-5.6,3.2-5.6s5.6-5.2,5,0.2"/>
				</g>
				<g>
					<path class="st8" d="M407.5,157.9c-4.5-6-9.8-5.9-11.5,1.6c-1.7,7.5,5.9,13.2,11.6,10.6C413.4,167.4,407.5,157.9,407.5,157.9z"
						/>
					<path class="st11" d="M402.8,158.3c-2.9-0.5-4.2,8.1,2.1,8.3l-1.3-3l1.2-2.5L402.8,158.3z"/>
					<path class="st12" d="M406,167.3c-3.8-3.5-1.4-6.3-1.4-6.3s-3.8-6.7-4.8-1.3"/>
				</g>
				<path class="st8" d="M461.3,145.1l-0.1,0.6c-0.7,5.9-1.8,12.5-3.5,18.9c-0.9,3.3-2,6.5-3.2,9.5c-0.9,2.2-1.9,4.2-3,6.1
					c-0.4,0.6-0.7,1.2-1.1,1.7c-0.3,0.4-0.5,0.8-0.8,1.1c-0.4,0.5-0.7,1-1.1,1.4c-0.3,0.3-0.5,0.6-0.8,0.9c-0.1,0.2-0.3,0.3-0.4,0.5
					c-0.3,0.3-0.5,0.6-0.8,0.9c-0.4,0.4-0.8,0.7-1.2,1.1c-0.4,0.3-0.8,0.6-1.1,0.9c-0.1,0.1-0.2,0.1-0.3,0.2c-0.3,0.3-0.7,0.5-1,0.7
					c-0.2,0.1-0.4,0.3-0.6,0.4c-0.4,0.2-0.7,0.4-1.1,0.6c-0.2,0.1-0.4,0.2-0.5,0.3c-0.1,0.1-0.3,0.1-0.4,0.2
					c-0.2,0.1-0.5,0.2-0.7,0.3c-0.2,0.1-0.5,0.2-0.7,0.3c-0.2,0.1-0.5,0.2-0.7,0.2c-0.3,0.1-0.5,0.1-0.8,0.2
					c-0.3,0.1-0.5,0.1-0.8,0.2c-0.2,0.1-0.3,0.1-0.5,0.1c-0.2,0-0.4,0.1-0.6,0.1c-0.2,0-0.3,0.1-0.5,0.1c-0.4,0.1-0.9,0.1-1.4,0.1
					c-0.6,0-1.3,0-2,0c-0.3,0-0.6,0-0.9-0.1h0c-1-0.1-2-0.2-3-0.4c-9.3-1.9-14.5-8.3-17.2-16.5c-0.7-2.1-1.2-4.3-1.6-6.5
					c-0.6-3.4-0.8-7.1-0.9-10.7c-0.1-7.1,0.7-14.1,1.7-20.2c1-6.5,5.6-11.6,11.4-13.6c2.4-0.9,5.1-1.2,7.8-0.9l17,1.9
					C455.5,126.9,462.4,135.6,461.3,145.1z"/>
				<g>
					<path class="st13" d="M418.3,165.2c0,0.9-0.8,1.7-1.7,1.7c-1,0-1.7-0.8-1.7-1.7c0-0.9,0.8-1.7,1.7-1.7
						C417.5,163.4,418.3,164.2,418.3,165.2z"/>
					<path class="st13" d="M420,168.5c0,0.5-0.4,0.9-0.9,0.9c-0.5,0-0.9-0.4-0.9-0.9s0.4-0.9,0.9-0.9
						C419.6,167.7,420,168.1,420,168.5z"/>
					<path class="st13" d="M421.7,165c0,0.6-0.5,1.1-1.2,1.1s-1.1-0.5-1.1-1.2s0.5-1.1,1.2-1.1C421.2,163.8,421.7,164.3,421.7,165z"
						/>
				</g>
				<g>
					<path class="st13" d="M445.9,168.6c-0.2,0.9,0.4,1.8,1.3,2c0.9,0.2,1.8-0.4,2-1.3c0.2-0.9-0.4-1.8-1.3-2
						C447,167.1,446.1,167.7,445.9,168.6z"/>
					<path class="st13" d="M443.6,171.6c-0.1,0.5,0.2,0.9,0.7,1c0.5,0.1,0.9-0.2,1-0.7c0.1-0.5-0.2-0.9-0.7-1
						C444.1,170.8,443.7,171.1,443.6,171.6z"/>
					<path class="st13" d="M442.6,167.7c-0.1,0.6,0.3,1.2,0.9,1.4c0.6,0.1,1.2-0.3,1.4-0.9c0.1-0.6-0.3-1.2-0.9-1.4
						C443.3,166.7,442.7,167.1,442.6,167.7z"/>
				</g>
				<path class="st17" d="M423.9,145.8c-9.3,1.4-14.8-0.6-6.9-2.5C425,141.4,428.7,145.1,423.9,145.8z"/>
				<path class="st17" d="M444.8,147.6c8.4,4.4,14.3,4.2,7.4-0.2C445.2,143.1,440.4,145.4,444.8,147.6z"/>
				<path class="st17" d="M420.5,157.4L420.5,157.4c-1.2,0-2.2-1-2.2-2.2v-2.1c0-1.2,1-2.2,2.2-2.2l0,0c1.2,0,2.2,1,2.2,2.2v2.1
					C422.7,156.5,421.7,157.4,420.5,157.4z"/>
				<path class="st17" d="M445.6,160.6L445.6,160.6c-1.2-0.3-1.8-1.6-1.5-2.7l0.6-2c0.3-1.2,1.6-1.8,2.7-1.5l0,0
					c1.2,0.3,1.8,1.6,1.5,2.7l-0.6,2C448,160.2,446.8,160.9,445.6,160.6z"/>
				<path class="st2" d="M436,177.9c0,2.2-1.8,4-4,4s-4-1.8-4-4s1.8-4,4-4C434.2,173.9,436,175.7,436,177.9z"/>
				
					<linearGradient id="SVGID_6_" gradientUnits="userSpaceOnUse" x1="544.685" y1="310.9986" x2="553.4278" y2="331.8677" gradientTransform="matrix(0.9744 -0.2248 -0.2248 -0.9744 -28.9702 597.5768)">
					<stop  offset="0" style="stop-color:#DB939B"/>
					<stop  offset="1" style="stop-color:#D5949B;stop-opacity:0"/>
				</linearGradient>
				<path class="st28" d="M437.8,164.8l-4-7.9l-5.4,7c-1.4,1.7,1.6,2.2,1.6,2.2s-0.2,1.8,2.7,2.2c3,0.1,3.1-1.6,3.1-1.6
					S438.8,166.8,437.8,164.8z"/>
				<path class="st29" d="M407.5,157.9"/>
				<path class="st29" d="M495.6,157.2l-0.3-0.2h0C495.4,157.1,495.5,157.2,495.6,157.2z"/>
			</g>
			<path class="st30" d="M404.5,131.4"/>
			<path class="st27" d="M414.1,127.1c-8.7-8.2-9.3-17.8-5.6-19.7c3.6-1.9,6,15.4,6,15.4L414.1,127.1z"/>
			<polygon class="st9" points="451.1,297.6 451.1,297.7 451.1,297.6 			"/>
			<path class="st9" d="M518.7,272.8c-0.1,0-0.2,0.1-0.2,0.1l-0.1,0.1c-5.9,3.5-13.3,5.8-20.4,8.4c-2.7,0.9-5.4,1.9-8.4,2.4
				c-1,0.2-2.1,0.3-3.2,0.4c-0.1,0-0.1,0-0.2,0c-6,2.3-13.1,2.8-19.8,3.8c-0.2,0-0.4,0.1-0.6,0.1c-0.8,0.1-1.6,0.3-2.5,0.4
				c-5.1,0.9-9.6,3-15.3,3.2l0.9,1.7c-0.3-0.3-0.7-0.6-1.1-0.9c-0.1,0-0.2,0-0.2,0c0,0-0.1,0-0.1,0c0,0,0,0.1,0,0.1h0
				c-2.7,0.7-5.1,1.6-7.3,2.7c0.6-0.9,1.1-1.8,1.7-2.8c-4.5,0.7-7.1,3-9.7,5.1h0l-8.3,0h0c-0.7,0.5-1.5,1-2.3,1.5h0
				c-0.1,0.1-0.2,0.1-0.4,0.2c0,0,0,0,0,0v0c0,0.1,0,0.1,0,0.2l-0.2-0.2c0,0,0,0,0-0.1c0,0-0.1,0-0.1,0h0c-0.6-0.2-1.3-0.4-2-0.5
				c-1.7-0.4-3.4-0.8-5.2-1.1h-29.3c-2.7,0.7-5.6,1.3-7.8,2.6c-0.7,0.1-1.4,0.3-2,0.4l0.3-3l0.4-4.4l-22.8-5.3l-3-0.7h0l-10.3-2.4
				c0,0,1.6-4.8,4-11.6c1.3-3.8,2.8-8.1,4.4-12.7c0,0,0,0,0,0c0.6-1.8,1.2-3.6,1.9-5.4c3.5-10.1,7-20.2,8.9-25.6
				c0.3-0.9,0.7-1.8,1.2-2.7c4.2-7.8,14.2-13.7,24.2-17.9c1-0.4,2-0.8,3-1.2c3.9-1.5,7.7-2.8,11.1-3.8c0.1,0,0.1-0.1,0.2-0.1
				c1.8-0.6,3.7-1,5.6-1.4c0.7-0.1,1.4-0.3,2.1-0.4c0.6-0.1,1.3-0.2,1.9-0.4c0.5-0.1,0.9-0.1,1.4-0.2c0.6-0.1,1.2-0.2,1.8-0.2
				c0,0,0,0,0,0c0.3,0,0.6-0.1,0.9-0.1c0.2,0,0.5-0.1,0.7-0.1c0.5-0.1,1.1-0.1,1.6-0.1c0.2,0,0.4,0,0.6-0.1c0,0,0.1,0,0.1,0
				c0.6-0.1,1.3-0.1,1.9-0.1c1.3-0.1,2.7-0.1,4-0.1h20.2c0.5,0,1.1,0,1.6,0c0.1,0,0.2,0,0.3,0c0.2,0,0.5,0,0.7,0c0.5,0,1,0,1.4,0.1
				c0.4,0,0.8,0,1.2,0.1c0.3,0,0.6,0,0.9,0.1c0.3,0,0.5,0,0.8,0.1c0.5,0,1,0.1,1.6,0.1c0.3,0,0.6,0.1,1,0.1c0.3,0,0.5,0.1,0.8,0.1
				c0.5,0.1,0.9,0.1,1.4,0.2c0.9,0.1,1.9,0.3,2.8,0.5c0.5,0.1,1,0.2,1.5,0.3c0.3,0,0.5,0.1,0.8,0.2c0.3,0.1,0.5,0.1,0.8,0.2h0
				c1.8,0.4,3.5,0.9,5.2,1.4c2.1,0.6,4.4,1.4,6.7,2.2c4.2,1.5,8.7,3.3,13,5.4c0.3,0.1,0.6,0.3,0.8,0.4c4.1,2.1,7.9,4.4,11.1,7.1
				c1.6,1.3,3.1,2.8,4.4,4.3c0,0,0,0,0,0c1,1.2,1.8,2.4,2.5,3.6c0.5,0.9,0.9,1.8,1.2,2.7c0,0.1,0.1,0.2,0.1,0.3c0,0,0,0,0,0
				c0.5,1.5,1.2,3.3,1.9,5.4c0,0,0,0,0,0c0.2,0.5,0.4,1,0.5,1.5c0.8,2.4,1.8,5.1,2.7,7.9c0.3,1,0.7,2,1,3c0.1,0.4,0.3,0.8,0.4,1.2
				c0.1,0.2,0.1,0.3,0.2,0.5c2.1,6.1,4.3,12.4,6.3,18.1v0c0.6,1.8,1.2,3.5,1.8,5.2C518.7,272.7,518.7,272.7,518.7,272.8z"/>
			<polyline class="st31" points="486.4,284.2 486.4,284 485.9,275.8 484.6,251.1 484.4,247.7 484.2,244.2 484.2,243.1 484.2,243 
				484.1,241.3 			"/>
			<polyline class="st31" points="489.6,283.8 493.6,269.9 494.2,267.7 			"/>
			<polyline class="st31" points="380.4,245.1 375.3,293.2 368.5,272.9 			"/>
			<path class="st8" d="M458.7,202.4c-2.9,4.4-11.5,14.7-27.4,14.7c-16.1,0-24.6-10.4-27.5-14.8c5.6-1.2,11.4-1.9,17.1-1.9h20.2
				C447.1,200.4,452.9,201.1,458.7,202.4z"/>
			<path class="st31" d="M411.3,218.5c0,0,23,14.1,41.9-1.4"/>
			<path class="st27" d="M451.9,100.6c-1.1,5.3-6.3,11.3-11.1,15.9c-2.9,2.8-5.6,5-7.4,6.4h0c-1,0.8-1.6,1.3-1.8,1.4c0,0,0,0,0,0v0
				l-0.6-1.2l-0.3-0.5l-9.1,1.3l-2.1,0.3c0,0,0,0,0,0l-1.4,0.2l-1.8,0.3l-1.1,0.2h0l-0.6,0.1l0.1-0.3l0.1-0.3l0.6-1.7l1.2-3.6
				l0.1-0.4l0.1-0.3c0.4-1.2,0.9-2.4,1.4-3.6c0.6-1.4,1.2-2.7,1.9-4c7.9-15.1,21.5-26.1,29.9-17.2
				C452.1,95.4,452.5,97.9,451.9,100.6z"/>
			<path class="st32" d="M473,120.6c-1.5,1.9-3.4,3.8-5.8,5.2c-0.6,0.4-1.3,0.8-2,1.1c-1.1,0.6-2.2,1-3.5,1.4
				c-0.1,0-0.2,0.1-0.3,0.1h0c-1.9,0.6-4,1-6.3,1.3c-0.6,0.1-1.2,0.1-1.8,0.1h0c-0.2,0-0.5,0-0.7,0c-0.1,0-0.3,0-0.4,0
				c-25.6,0.6-31.2-5.1-31.2-5.1c0-0.1,0.1-0.2,0.1-0.2s0.1-0.2,0.2-0.2h0c0.1-0.2,0.2-0.4,0.4-0.6c0.7-1,1.4-1.9,2.1-2.9
				c7.1-9.2,17.3-17.2,28.1-20.3c6.4-1.8,12.9-2,19.2,0.2C477.6,103.2,478.8,113,473,120.6z"/>
			<path class="st2" d="M468.9,147.9c-2.2-1.4-4.8-2.6-7.5-3.7c-13.7-5.3-33.5-7.4-48.4-5.2c-1.2,0.2-2.4,0.4-3.5,0.6
				c-2.1,0.4-4.1,0.9-5.9,1.6c-1.4,0.5-2.7,1-3.9,1.6c-0.2-1.6-0.3-3.2-0.3-5c0-2.1,0.1-4,0.4-5.8c1.8-0.9,3.5-1.7,5.3-2.4
				c3.9-1.7,7.6-3,11.2-3.9c1.8-0.5,3.5-0.9,5.1-1.3h0c17.1-3.6,30.8-0.2,40.1,4.1c3.3,1.5,6.1,3.2,8.4,4.7
				C470,134.6,470.6,140.8,468.9,147.9z"/>
			<path class="st6" d="M483.6,211.3c-2.4,5.3-4.7,10.4-7,15.4c-1.4,3.1-2.9,6.1-4.3,9.1l-0.1,0.2c-0.4,0.8-0.8,1.6-1.2,2.5
				c-0.1,0.2-0.2,0.3-0.2,0.5c-0.1,0.2-0.2,0.5-0.4,0.7c-0.2,0.4-0.4,0.9-0.6,1.3c-0.4,0.9-0.9,1.8-1.3,2.7
				c-0.6,1.2-1.2,2.3-1.7,3.5c-2.3,4.6-4.6,9-6.9,13.3l-0.1,0.2c-1.5,2.9-3,5.7-4.6,8.5c-0.2,0.3-0.4,0.6-0.5,1
				c-0.3,0.6-0.7,1.2-1,1.8c0,0.1-0.1,0.2-0.2,0.3c-1.4,2.5-2.7,4.9-4.1,7.3c-0.4,0.6-0.7,1.3-1.1,1.9c-0.4,0.7-0.8,1.3-1.2,2
				c0,0.1-0.1,0.2-0.1,0.3c-0.2,0.4-0.4,0.8-0.7,1.1c-0.2,0.3-0.4,0.7-0.6,1c-0.6,1-1.2,2.1-1.8,3.1c-0.3,0.5-0.6,1-0.9,1.5
				c-0.1,0.2-0.3,0.5-0.4,0.7c-0.3,0.4-0.5,0.8-0.8,1.3c-4.5,0.7-7.1,3-9.7,5.1h0l-8.3,0h0c-0.7,0.5-1.5,1-2.3,1.5h0
				c-0.1,0.1-0.2,0.1-0.4,0.2c0,0,0,0,0,0v0c0,0.1,0,0.1,0,0.2l-0.2-0.2c0,0,0,0,0-0.1c0,0-0.1,0-0.1,0h0c-0.6-0.2-1.3-0.4-2-0.5
				c0.2-0.3,0.5-0.7,0.7-1c0,0,0-0.1,0.1-0.1c1.1-1.7,2.3-3.4,3.4-5.2c0.4-0.7,0.9-1.4,1.3-2c0.7-1.1,1.4-2.2,2.2-3.4c0,0,0,0,0,0
				c0.4-0.7,0.8-1.3,1.3-2c0.8-1.3,1.7-2.7,2.5-4.1c0.1-0.2,0.2-0.4,0.3-0.5c0.1-0.1,0.1-0.3,0.2-0.4c0.5-0.8,1-1.7,1.6-2.6
				c0-0.1,0.1-0.1,0.1-0.2c1.1-1.9,2.3-3.8,3.5-5.8c0-0.1,0.1-0.1,0.1-0.2c0-0.1,0.1-0.1,0.1-0.2c0.1-0.2,0.3-0.5,0.4-0.7l1-1.7
				c0.8-1.4,1.6-2.8,2.4-4.1c0,0,0,0,0,0c0-0.1,0.1-0.1,0.1-0.2c0,0,0,0,0-0.1c0,0,0-0.1,0.1-0.1c0-0.1,0.1-0.2,0.1-0.3
				c0.7-1.1,1.3-2.3,2-3.5c0.5-0.9,1.1-1.9,1.6-2.9c0.3-0.5,0.6-1,0.9-1.5c0.1-0.3,0.3-0.6,0.5-0.9c2.1-3.8,4.2-7.6,6.4-11.6
				c2.9-5.4,5.8-10.9,8.7-16.7c3.4-6.6,6.8-13.6,10.2-20.8C474.9,207.4,479.4,209.2,483.6,211.3z"/>
			
				<linearGradient id="SVGID_7_" gradientUnits="userSpaceOnUse" x1="439.089" y1="35.4808" x2="439.089" y2="164.5692" gradientTransform="matrix(1 0 0 -1 0 394.001)">
				<stop  offset="0" style="stop-color:#F7F5F9"/>
				<stop  offset="1" style="stop-color:#EBE9ED;stop-opacity:0"/>
			</linearGradient>
			<path class="st33" d="M418.6,279.5l-38.3-86.6c0,0,29.1-24.5,84.4-7.4s24.3,17.1,24.3,17.1l-39.9,79L418.6,279.5z"/>
			<polygon class="st8" points="451.1,297.6 451.1,297.7 451.1,297.6 			"/>
			<path class="st8" d="M466.4,288c-0.2,0-0.4,0.1-0.6,0.1c-0.8,0.1-1.6,0.3-2.5,0.4c-5.1,0.9-9.6,3-15.3,3.2l0.9,1.7
				c-0.3-0.3-0.7-0.6-1.1-0.9c-0.1,0-0.2,0-0.2,0c0,0,0-0.1,0-0.1c-0.1-0.2-0.2-0.4-0.2-0.6c-0.1-0.2-0.1-0.4-0.2-0.5
				c-0.1-0.3-0.2-0.6-0.3-0.8c-0.1-0.3-0.2-0.5-0.2-0.6c0,0,0,0,0,0l4.8-5.5l5.4-6.2l0.1,0.1v0l6.1,6.3L466.4,288z"/>
			<g>
				<g>
					<g>
						<path class="st11" d="M455.1,271.9c-0.1-4.9,2-20-1.4-21.7c-3.4-1.6-5.5,9.4-5.5,9.4l2,13.4L455.1,271.9z"/>
					</g>
					<path class="st2" d="M447.4,236.9l-21-1.4c-2.6-0.2-5,1.8-5.1,4.5l-2.6,39.5c-0.2,2.6,1.8,5,4.5,5.1l21,1.4
						c2.6,0.2,5-1.8,5.1-4.5l2.6-39.5C452,239.3,450,237,447.4,236.9z"/>
					<path class="st6" d="M439.3,246.2c0,1.6-1.3,3-3,3c-1.6,0-3-1.3-3-3c0-1.6,1.3-3,3-3C438,243.2,439.3,244.5,439.3,246.2z"/>
					<g>
						<g>
							
								<rect x="441.3" y="258.9" transform="matrix(0.406 -0.9139 0.9139 0.406 20.2912 560.754)" class="st13" width="0.4" height="11.8"/>
						</g>
						<g>
							<path class="st8" d="M434.3,257.3l0.2-0.5c0.9-1.8,3.2-2.6,5-1.6l11.6,5.9c1.8,0.9,2.6,3.2,1.6,5l-0.2,0.5
								c-0.9,1.8-3.2,2.6-5,1.6l-11.6-5.9C434,261.3,433.3,259.1,434.3,257.3z"/>
						</g>
						<g>
							<path class="st8" d="M442,282.6c-0.5-0.1-1-0.3-1.4-0.5l-8.8-5.4c-1.9-1.1-2.5-3.6-1.3-5.5s3.6-2.5,5.5-1.3l8.8,5.4
								c1.9,1.1,2.5,3.6,1.3,5.5C445.2,282.2,443.6,282.9,442,282.6z"/>
						</g>
						<path class="st8" d="M456.7,278l-1.4,1.8l-8.1,10.1c0,0-0.2,0-0.6-0.1c0,0-0.1,0-0.2,0c-1.5-0.4-4.9-1.4-7.7-2.9
							c-4.8-2.7-6.3-3.8-7.3-4.4c-1.3-0.8-1.6-2.5-0.8-3.8c0.8-1.3,2.5-1.6,3.8-0.8l4,2.6l2.4-13.4l11.9-3.8L456.7,278z"/>
						<g>
							<path class="st8" d="M431.3,264.9l0.2-0.5c0.8-1.9,3.1-2.7,4.9-1.9l11.9,5.3c1.9,0.8,2.7,3.1,1.9,4.9l-0.2,0.5
								c-0.8,1.9-3.1,2.7-4.9,1.9l-11.9-5.3C431.3,269,430.5,266.8,431.3,264.9z"/>
						</g>
						<g>
							<polygon class="st13" points="433.4,270.1 442.5,274.2 442.6,273.8 433.5,269.8 							"/>
						</g>
						<g>
							<polygon class="st13" points="439.1,280.8 439.3,280.5 434.6,277.6 434.4,277.9 							"/>
						</g>
						<g>
							<polygon class="st13" points="437.9,263.1 447,267.1 447.1,266.8 438,262.7 							"/>
						</g>
					</g>
				</g>
				<polygon class="st8" points="451.1,297.6 451.1,297.7 451.1,297.6 				"/>
				<path class="st8" d="M465.7,288.1c-0.8,0.1-1.6,0.3-2.5,0.4c-5.1,0.9-9.6,3-15.3,3.2l0-0.1l-0.6-1.1l-0.1-0.1l-0.2-0.5l8.1-10.1
					l0,0l1.4-1.7l0.1,0.1v0l5.9,6.5L465.7,288.1z"/>
			</g>
			<polygon class="st11" points="348.1,293.2 375.3,293.2 349.5,287.2 			"/>
			<g>
				<path class="st1" d="M501.1,181.5l-7.9-4.1c0.8-1.7,1.6-3,2.4-4s1.8-1.7,2.6-2.1s1.8-0.8,2.6-0.9c0.9-0.1,1.7-0.2,2.5-0.2
					c0.8,0,1.5-0.1,2.1-0.1c0.6-0.1,1.1-0.3,1.5-0.7c0.3-0.2,0.5-0.5,0.6-0.9c0.1-0.4,0.2-0.8,0.1-1.3c-0.1-0.5-0.4-0.9-0.8-1.5
					c-0.4-0.5-1-1-1.9-1.4c-0.6-0.3-1.3-0.6-2.1-0.9s-1.7-0.6-2.6-0.8c-1-0.2-1.9-0.4-2.9-0.5c-1-0.1-1.9-0.2-2.7-0.1l3.7-9.6
					c0.8,0,1.6-0.1,2.5,0c0.9,0,1.9,0.1,2.9,0.3c1,0.2,2.1,0.4,3.2,0.8s2.3,0.8,3.5,1.4c1.9,1,3.6,2.2,5,3.6c1.4,1.4,2.5,3,3.2,4.6
					c0.7,1.7,1.1,3.5,1,5.4s-0.6,3.8-1.6,5.7c-0.8,1.5-1.6,2.5-2.5,3.2c-0.9,0.7-1.8,1.1-2.8,1.4S511,179,510,179s-2,0-3,0
					c-1,0.1-2,0.3-3,0.6C503,179.9,502.1,180.6,501.1,181.5z M499.1,188.3c-0.4,0.7-0.8,1.3-1.4,1.7s-1.2,0.8-1.9,1
					c-0.7,0.2-1.4,0.3-2.1,0.2c-0.7-0.1-1.4-0.3-2.1-0.6c-0.7-0.4-1.3-0.8-1.7-1.4s-0.8-1.2-1-1.9c-0.2-0.7-0.3-1.4-0.2-2.1
					c0-0.7,0.3-1.4,0.6-2.1c0.4-0.7,0.8-1.2,1.4-1.7c0.6-0.5,1.2-0.8,1.9-1c0.7-0.2,1.4-0.3,2.1-0.3s1.4,0.2,2.1,0.6
					c0.7,0.4,1.2,0.8,1.7,1.4c0.5,0.6,0.8,1.2,1,1.9s0.3,1.4,0.2,2.1C499.6,186.9,499.4,187.6,499.1,188.3z"/>
			</g>
			<text transform="matrix(1 0 0 1 136.0726 72.2168)" class="st34 st35">Trending topik </text>
			<text transform="matrix(1 0 0 1 136.0726 88.8468)" class="st34 st35">Mahasiswa terkini</text>
		</g>
	</g>
</g>
</svg>
